<svg width="632" height="582" viewBox="0 0 632 582" fill="none" xmlns="http://www.w3.org/2000/svg">
<rect x="27.1211" y="106.089" width="512" height="478" rx="14" transform="rotate(-11.9313 27.1211 106.089)" fill="#E8E8FF"/>
<path d="M632 306C632 371.17 579.17 424 514 424C448.83 424 396 371.17 396 306C396 240.83 448.83 188 514 188C579.17 188 632 240.83 632 306ZM411.133 306C411.133 362.812 457.188 408.867 514 408.867C570.812 408.867 616.867 362.812 616.867 306C616.867 249.188 570.812 203.133 514 203.133C457.188 203.133 411.133 249.188 411.133 306Z" fill="#CFD1F7"/>
<path d="M595 306.5C595 351.511 558.735 388 514 388C469.265 388 433 351.511 433 306.5C433 261.489 469.265 225 514 225C558.735 225 595 261.489 595 306.5ZM446.987 306.5C446.987 343.739 476.99 373.927 514 373.927C551.01 373.927 581.013 343.739 581.013 306.5C581.013 269.261 551.01 239.073 514 239.073C476.99 239.073 446.987 269.261 446.987 306.5Z" fill="#CFD1F7"/>
<g filter="url(#filter0_d_0_383)">
<rect x="90" y="71" width="414" height="257" rx="14" fill="#F8F9FE"/>
</g>
<path d="M123.789 276.469L126.25 283.008L128.705 276.469H130.621V285H129.145V282.188L129.291 278.426L126.771 285H125.711L123.197 278.432L123.344 282.188V285H121.867V276.469H123.789ZM131.975 281.771C131.975 281.15 132.098 280.592 132.344 280.096C132.59 279.596 132.936 279.213 133.381 278.947C133.826 278.678 134.338 278.543 134.916 278.543C135.771 278.543 136.465 278.818 136.996 279.369C137.531 279.92 137.82 280.65 137.863 281.561L137.869 281.895C137.869 282.52 137.748 283.078 137.506 283.57C137.268 284.062 136.924 284.443 136.475 284.713C136.029 284.982 135.514 285.117 134.928 285.117C134.033 285.117 133.316 284.82 132.777 284.227C132.242 283.629 131.975 282.834 131.975 281.842V281.771ZM133.398 281.895C133.398 282.547 133.533 283.059 133.803 283.43C134.072 283.797 134.447 283.98 134.928 283.98C135.408 283.98 135.781 283.793 136.047 283.418C136.316 283.043 136.451 282.494 136.451 281.771C136.451 281.131 136.312 280.623 136.035 280.248C135.762 279.873 135.389 279.686 134.916 279.686C134.451 279.686 134.082 279.871 133.809 280.242C133.535 280.609 133.398 281.16 133.398 281.895ZM140.395 278.66L140.436 279.393C140.904 278.826 141.52 278.543 142.281 278.543C143.602 278.543 144.273 279.299 144.297 280.811V285H142.873V280.893C142.873 280.49 142.785 280.193 142.609 280.002C142.438 279.807 142.154 279.709 141.76 279.709C141.186 279.709 140.758 279.969 140.477 280.488V285H139.053V278.66H140.395Z" fill="#636975"/>
<path d="M186.031 277.664H183.371V285H181.9V277.664H179.264V276.469H186.031V277.664ZM190.473 284.379C190.055 284.871 189.461 285.117 188.691 285.117C188.004 285.117 187.482 284.916 187.127 284.514C186.775 284.111 186.6 283.529 186.6 282.768V278.66H188.023V282.75C188.023 283.555 188.357 283.957 189.025 283.957C189.717 283.957 190.184 283.709 190.426 283.213V278.66H191.85V285H190.508L190.473 284.379ZM196.092 285.117C195.189 285.117 194.457 284.834 193.895 284.268C193.336 283.697 193.057 282.939 193.057 281.994V281.818C193.057 281.186 193.178 280.621 193.42 280.125C193.666 279.625 194.01 279.236 194.451 278.959C194.893 278.682 195.385 278.543 195.928 278.543C196.791 278.543 197.457 278.818 197.926 279.369C198.398 279.92 198.635 280.699 198.635 281.707V282.281H194.492C194.535 282.805 194.709 283.219 195.014 283.523C195.322 283.828 195.709 283.98 196.174 283.98C196.826 283.98 197.357 283.717 197.768 283.189L198.535 283.922C198.281 284.301 197.941 284.596 197.516 284.807C197.094 285.014 196.619 285.117 196.092 285.117ZM195.922 279.686C195.531 279.686 195.215 279.822 194.973 280.096C194.734 280.369 194.582 280.75 194.516 281.238H197.229V281.133C197.197 280.656 197.07 280.297 196.848 280.055C196.625 279.809 196.316 279.686 195.922 279.686Z" fill="#636975"/>
<path d="M300.031 277.664H297.371V285H295.9V277.664H293.264V276.469H300.031V277.664ZM302.422 279.352C302.887 278.812 303.475 278.543 304.186 278.543C305.537 278.543 306.223 279.314 306.242 280.857V285H304.818V280.91C304.818 280.473 304.723 280.164 304.531 279.984C304.344 279.801 304.066 279.709 303.699 279.709C303.129 279.709 302.703 279.963 302.422 280.471V285H300.998V276H302.422V279.352ZM311.527 284.379C311.109 284.871 310.516 285.117 309.746 285.117C309.059 285.117 308.537 284.916 308.182 284.514C307.83 284.111 307.654 283.529 307.654 282.768V278.66H309.078V282.75C309.078 283.555 309.412 283.957 310.08 283.957C310.771 283.957 311.238 283.709 311.48 283.213V278.66H312.904V285H311.562L311.527 284.379Z" fill="#636975"/>
<path d="M353.783 281.385H350.35V285H348.867V276.469H354.287V277.664H350.35V280.201H353.783V281.385ZM358.494 279.961C358.307 279.93 358.113 279.914 357.914 279.914C357.262 279.914 356.822 280.164 356.596 280.664V285H355.172V278.66H356.531L356.566 279.369C356.91 278.818 357.387 278.543 357.996 278.543C358.199 278.543 358.367 278.57 358.5 278.625L358.494 279.961ZM360.908 285H359.484V278.66H360.908V285ZM359.396 277.014C359.396 276.795 359.465 276.613 359.602 276.469C359.742 276.324 359.941 276.252 360.199 276.252C360.457 276.252 360.656 276.324 360.797 276.469C360.938 276.613 361.008 276.795 361.008 277.014C361.008 277.229 360.938 277.408 360.797 277.553C360.656 277.693 360.457 277.764 360.199 277.764C359.941 277.764 359.742 277.693 359.602 277.553C359.465 277.408 359.396 277.229 359.396 277.014Z" fill="#636975"/>
<path d="M401.326 282.803C401.326 282.428 401.193 282.139 400.928 281.936C400.666 281.732 400.191 281.527 399.504 281.32C398.816 281.113 398.27 280.883 397.863 280.629C397.086 280.141 396.697 279.504 396.697 278.719C396.697 278.031 396.977 277.465 397.535 277.02C398.098 276.574 398.826 276.352 399.721 276.352C400.314 276.352 400.844 276.461 401.309 276.68C401.773 276.898 402.139 277.211 402.404 277.617C402.67 278.02 402.803 278.467 402.803 278.959H401.326C401.326 278.514 401.186 278.166 400.904 277.916C400.627 277.662 400.229 277.535 399.709 277.535C399.225 277.535 398.848 277.639 398.578 277.846C398.312 278.053 398.18 278.342 398.18 278.713C398.18 279.025 398.324 279.287 398.613 279.498C398.902 279.705 399.379 279.908 400.043 280.107C400.707 280.303 401.24 280.527 401.643 280.781C402.045 281.031 402.34 281.32 402.527 281.648C402.715 281.973 402.809 282.354 402.809 282.791C402.809 283.502 402.535 284.068 401.988 284.49C401.445 284.908 400.707 285.117 399.773 285.117C399.156 285.117 398.588 285.004 398.068 284.777C397.553 284.547 397.15 284.23 396.861 283.828C396.576 283.426 396.434 282.957 396.434 282.422H397.916C397.916 282.906 398.076 283.281 398.396 283.547C398.717 283.812 399.176 283.945 399.773 283.945C400.289 283.945 400.676 283.842 400.934 283.635C401.195 283.424 401.326 283.146 401.326 282.803ZM407.76 285C407.697 284.879 407.643 284.682 407.596 284.408C407.143 284.881 406.588 285.117 405.932 285.117C405.295 285.117 404.775 284.936 404.373 284.572C403.971 284.209 403.77 283.76 403.77 283.225C403.77 282.549 404.02 282.031 404.52 281.672C405.023 281.309 405.742 281.127 406.676 281.127H407.549V280.711C407.549 280.383 407.457 280.121 407.273 279.926C407.09 279.727 406.811 279.627 406.436 279.627C406.111 279.627 405.846 279.709 405.639 279.873C405.432 280.033 405.328 280.238 405.328 280.488H403.904C403.904 280.141 404.02 279.816 404.25 279.516C404.48 279.211 404.793 278.973 405.188 278.801C405.586 278.629 406.029 278.543 406.518 278.543C407.26 278.543 407.852 278.73 408.293 279.105C408.734 279.477 408.961 280 408.973 280.676V283.535C408.973 284.105 409.053 284.561 409.213 284.9V285H407.76ZM406.195 283.975C406.477 283.975 406.74 283.906 406.986 283.77C407.236 283.633 407.424 283.449 407.549 283.219V282.023H406.781C406.254 282.023 405.857 282.115 405.592 282.299C405.326 282.482 405.193 282.742 405.193 283.078C405.193 283.352 405.283 283.57 405.463 283.734C405.646 283.895 405.891 283.975 406.195 283.975ZM412.248 277.119V278.66H413.367V279.715H412.248V283.254C412.248 283.496 412.295 283.672 412.389 283.781C412.486 283.887 412.658 283.939 412.904 283.939C413.068 283.939 413.234 283.92 413.402 283.881V284.982C413.078 285.072 412.766 285.117 412.465 285.117C411.371 285.117 410.824 284.514 410.824 283.307V279.715H409.781V278.66H410.824V277.119H412.248Z" fill="#636975"/>
<path d="M453.326 282.803C453.326 282.428 453.193 282.139 452.928 281.936C452.666 281.732 452.191 281.527 451.504 281.32C450.816 281.113 450.27 280.883 449.863 280.629C449.086 280.141 448.697 279.504 448.697 278.719C448.697 278.031 448.977 277.465 449.535 277.02C450.098 276.574 450.826 276.352 451.721 276.352C452.314 276.352 452.844 276.461 453.309 276.68C453.773 276.898 454.139 277.211 454.404 277.617C454.67 278.02 454.803 278.467 454.803 278.959H453.326C453.326 278.514 453.186 278.166 452.904 277.916C452.627 277.662 452.229 277.535 451.709 277.535C451.225 277.535 450.848 277.639 450.578 277.846C450.312 278.053 450.18 278.342 450.18 278.713C450.18 279.025 450.324 279.287 450.613 279.498C450.902 279.705 451.379 279.908 452.043 280.107C452.707 280.303 453.24 280.527 453.643 280.781C454.045 281.031 454.34 281.32 454.527 281.648C454.715 281.973 454.809 282.354 454.809 282.791C454.809 283.502 454.535 284.068 453.988 284.49C453.445 284.908 452.707 285.117 451.773 285.117C451.156 285.117 450.588 285.004 450.068 284.777C449.553 284.547 449.15 284.23 448.861 283.828C448.576 283.426 448.434 282.957 448.434 282.422H449.916C449.916 282.906 450.076 283.281 450.396 283.547C450.717 283.812 451.176 283.945 451.773 283.945C452.289 283.945 452.676 283.842 452.934 283.635C453.195 283.424 453.326 283.146 453.326 282.803ZM459.812 284.379C459.395 284.871 458.801 285.117 458.031 285.117C457.344 285.117 456.822 284.916 456.467 284.514C456.115 284.111 455.939 283.529 455.939 282.768V278.66H457.363V282.75C457.363 283.555 457.697 283.957 458.365 283.957C459.057 283.957 459.523 283.709 459.766 283.213V278.66H461.189V285H459.848L459.812 284.379ZM463.961 278.66L464.002 279.393C464.471 278.826 465.086 278.543 465.848 278.543C467.168 278.543 467.84 279.299 467.863 280.811V285H466.439V280.893C466.439 280.49 466.352 280.193 466.176 280.002C466.004 279.807 465.721 279.709 465.326 279.709C464.752 279.709 464.324 279.969 464.043 280.488V285H462.619V278.66H463.961Z" fill="#636975"/>
<mask id="mask0_0_383" style="mask-type:alpha" maskUnits="userSpaceOnUse" x="90" y="71" width="414" height="257">
<rect x="90" y="71" width="414" height="257" fill="#F8F9FE"/>
</mask>
<g mask="url(#mask0_0_383)">
<g filter="url(#filter1_d_0_383)">
<path d="M87 210C92.6667 211.5 106.5 207.3 116.5 178.5C129 142.5 139.5 141 157.5 168C175.5 195 198 175 209.5 157.5C221 140 237.5 135.5 256.5 160C275.5 184.5 299 165.5 310.5 148C322 130.5 339 112.5 359 144C379 175.5 382 201 404 174.5C421.5 154.5 427 122 443 141C459 160 459 187.5 504.5 178" stroke="#F8C63D" stroke-width="4"/>
</g>
</g>
<rect x="221" y="101" width="51" height="208" rx="6" fill="#0F8CE9"/>
<path d="M241.559 284.891L242.871 278.469H244.342L242.373 287H240.955L239.332 280.771L237.674 287H236.25L234.281 278.469H235.752L237.076 284.879L238.705 278.469H239.947L241.559 284.891ZM247.893 287.117C246.99 287.117 246.258 286.834 245.695 286.268C245.137 285.697 244.857 284.939 244.857 283.994V283.818C244.857 283.186 244.979 282.621 245.221 282.125C245.467 281.625 245.811 281.236 246.252 280.959C246.693 280.682 247.186 280.543 247.729 280.543C248.592 280.543 249.258 280.818 249.727 281.369C250.199 281.92 250.436 282.699 250.436 283.707V284.281H246.293C246.336 284.805 246.51 285.219 246.814 285.523C247.123 285.828 247.51 285.98 247.975 285.98C248.627 285.98 249.158 285.717 249.568 285.189L250.336 285.922C250.082 286.301 249.742 286.596 249.316 286.807C248.895 287.014 248.42 287.117 247.893 287.117ZM247.723 281.686C247.332 281.686 247.016 281.822 246.773 282.096C246.535 282.369 246.383 282.75 246.316 283.238H249.029V283.133C248.998 282.656 248.871 282.297 248.648 282.055C248.426 281.809 248.117 281.686 247.723 281.686ZM251.279 283.783C251.279 282.807 251.506 282.023 251.959 281.434C252.412 280.84 253.02 280.543 253.781 280.543C254.453 280.543 254.996 280.777 255.41 281.246V278H256.834V287H255.545L255.475 286.344C255.049 286.859 254.48 287.117 253.77 287.117C253.027 287.117 252.426 286.818 251.965 286.221C251.508 285.623 251.279 284.811 251.279 283.783ZM252.703 283.906C252.703 284.551 252.826 285.055 253.072 285.418C253.322 285.777 253.676 285.957 254.133 285.957C254.715 285.957 255.141 285.697 255.41 285.178V282.471C255.148 281.963 254.727 281.709 254.145 281.709C253.684 281.709 253.328 281.893 253.078 282.26C252.828 282.623 252.703 283.172 252.703 283.906Z" fill="white"/>
<path d="M237.799 122.773C237.799 122.441 237.693 122.168 237.482 121.953C237.271 121.734 236.92 121.539 236.428 121.367C235.936 121.191 235.553 121.029 235.279 120.881C234.369 120.393 233.914 119.67 233.914 118.713C233.914 118.064 234.111 117.531 234.506 117.113C234.9 116.695 235.436 116.447 236.111 116.369V115.092H237.049V116.381C237.729 116.479 238.254 116.768 238.625 117.248C238.996 117.725 239.182 118.346 239.182 119.111H237.764C237.764 118.619 237.652 118.232 237.43 117.951C237.211 117.666 236.912 117.523 236.533 117.523C236.158 117.523 235.865 117.625 235.654 117.828C235.443 118.031 235.338 118.322 235.338 118.701C235.338 119.041 235.441 119.314 235.648 119.521C235.859 119.725 236.215 119.918 236.715 120.102C237.215 120.285 237.607 120.455 237.893 120.611C238.178 120.768 238.418 120.947 238.613 121.15C238.809 121.35 238.959 121.58 239.064 121.842C239.17 122.104 239.223 122.41 239.223 122.762C239.223 123.422 239.02 123.957 238.613 124.367C238.211 124.777 237.648 125.02 236.926 125.094V126.236H235.994V125.1C235.221 125.014 234.625 124.736 234.207 124.268C233.793 123.799 233.586 123.178 233.586 122.404H235.01C235.01 122.896 235.133 123.277 235.379 123.547C235.629 123.816 235.98 123.951 236.434 123.951C236.879 123.951 237.217 123.844 237.447 123.629C237.682 123.414 237.799 123.129 237.799 122.773ZM240.84 120.77L241.303 116.469H245.885V117.699H242.486L242.252 119.738C242.646 119.512 243.092 119.398 243.588 119.398C244.4 119.398 245.031 119.658 245.48 120.178C245.934 120.697 246.16 121.396 246.16 122.275C246.16 123.143 245.91 123.834 245.41 124.35C244.91 124.861 244.225 125.117 243.354 125.117C242.572 125.117 241.924 124.896 241.408 124.455C240.896 124.01 240.619 123.424 240.576 122.697H241.953C242.008 123.111 242.156 123.43 242.398 123.652C242.641 123.871 242.957 123.98 243.348 123.98C243.785 123.98 244.125 123.824 244.367 123.512C244.613 123.199 244.736 122.773 244.736 122.234C244.736 121.715 244.602 121.305 244.332 121.004C244.062 120.699 243.691 120.547 243.219 120.547C242.961 120.547 242.742 120.582 242.562 120.652C242.383 120.719 242.188 120.852 241.977 121.051L240.84 120.77ZM251.316 121.432C250.84 121.936 250.283 122.188 249.646 122.188C248.896 122.188 248.299 121.926 247.854 121.402C247.408 120.875 247.186 120.184 247.186 119.328C247.186 118.766 247.299 118.256 247.525 117.799C247.752 117.342 248.074 116.986 248.492 116.732C248.91 116.479 249.395 116.352 249.945 116.352C250.805 116.352 251.486 116.672 251.99 117.312C252.494 117.953 252.746 118.811 252.746 119.885V120.283C252.746 121.822 252.398 122.996 251.703 123.805C251.008 124.613 249.971 125.023 248.592 125.035H248.422V123.857H248.627C249.467 123.846 250.111 123.645 250.561 123.254C251.01 122.859 251.262 122.252 251.316 121.432ZM249.945 121.074C250.23 121.074 250.498 120.992 250.748 120.828C250.998 120.664 251.191 120.438 251.328 120.148V119.592C251.328 118.963 251.199 118.457 250.941 118.074C250.684 117.691 250.35 117.5 249.939 117.5C249.529 117.5 249.201 117.67 248.955 118.01C248.713 118.346 248.592 118.771 248.592 119.287C248.592 119.822 248.715 120.254 248.961 120.582C249.207 120.91 249.535 121.074 249.945 121.074ZM259.66 121.408C259.66 122.635 259.43 123.561 258.969 124.186C258.512 124.807 257.814 125.117 256.877 125.117C255.955 125.117 255.26 124.814 254.791 124.209C254.326 123.6 254.088 122.699 254.076 121.508V120.031C254.076 118.805 254.305 117.885 254.762 117.271C255.223 116.658 255.924 116.352 256.865 116.352C257.799 116.352 258.494 116.65 258.951 117.248C259.412 117.846 259.648 118.74 259.66 119.932V121.408ZM258.236 119.814C258.236 119.014 258.127 118.428 257.908 118.057C257.689 117.682 257.342 117.494 256.865 117.494C256.4 117.494 256.059 117.672 255.84 118.027C255.621 118.379 255.506 118.93 255.494 119.68V121.613C255.494 122.41 255.605 123.004 255.828 123.395C256.051 123.785 256.4 123.98 256.877 123.98C257.334 123.98 257.672 123.801 257.891 123.441C258.109 123.078 258.225 122.512 258.236 121.742V119.814Z" fill="white"/>
<path d="M128.273 105.398H131.062C131.008 102.695 128.703 100.781 125.297 100.781C121.938 100.781 119.414 102.672 119.422 105.5C119.422 107.797 121.055 109.117 123.688 109.797L125.508 110.266C127.234 110.703 128.375 111.242 128.383 112.484C128.375 113.852 127.078 114.766 125.188 114.766C123.375 114.766 121.969 113.953 121.852 112.273H119C119.117 115.453 121.484 117.242 125.211 117.242C129.047 117.242 131.273 115.328 131.281 112.508C131.273 109.734 128.984 108.469 126.578 107.898L125.078 107.523C123.766 107.211 122.344 106.656 122.359 105.32C122.367 104.117 123.445 103.234 125.258 103.234C126.984 103.234 128.125 104.039 128.273 105.398ZM139.732 105H137.365V102.125H134.537V105H132.834V107.187H134.537V113.859C134.521 116.117 136.162 117.227 138.287 117.164C139.092 117.141 139.646 116.984 139.951 116.883L139.475 114.672C139.318 114.711 138.998 114.781 138.646 114.781C137.936 114.781 137.365 114.531 137.365 113.391V107.187H139.732V105ZM145.551 117.242C147.434 117.242 148.559 116.359 149.074 115.352H149.168V117H151.887V108.969C151.887 105.797 149.301 104.844 147.012 104.844C144.488 104.844 142.551 105.969 141.926 108.156L144.566 108.531C144.848 107.711 145.645 107.008 147.027 107.008C148.34 107.008 149.059 107.68 149.059 108.859V108.906C149.059 109.719 148.207 109.758 146.09 109.984C143.762 110.234 141.535 110.93 141.535 113.633C141.535 115.992 143.262 117.242 145.551 117.242ZM146.285 115.164C145.105 115.164 144.262 114.625 144.262 113.586C144.262 112.5 145.207 112.047 146.473 111.867C147.215 111.766 148.699 111.578 149.066 111.281V112.695C149.066 114.031 147.988 115.164 146.285 115.164ZM160.723 105H158.355V102.125H155.527V105H153.824V107.187H155.527V113.859C155.512 116.117 157.152 117.227 159.277 117.164C160.082 117.141 160.637 116.984 160.941 116.883L160.465 114.672C160.309 114.711 159.988 114.781 159.637 114.781C158.926 114.781 158.355 114.531 158.355 113.391V107.187H160.723V105ZM170.736 111.953C170.736 113.781 169.432 114.687 168.182 114.687C166.822 114.687 165.916 113.727 165.916 112.203V105H163.088V112.641C163.088 115.523 164.729 117.156 167.088 117.156C168.885 117.156 170.15 116.211 170.697 114.867H170.822V117H173.564V105H170.736V111.953ZM185.957 108.172C185.566 106.141 183.941 104.844 181.129 104.844C178.238 104.844 176.27 106.266 176.277 108.484C176.27 110.234 177.348 111.391 179.652 111.867L181.699 112.297C182.801 112.539 183.316 112.984 183.316 113.664C183.316 114.484 182.426 115.102 181.082 115.102C179.785 115.102 178.941 114.539 178.699 113.461L175.941 113.727C176.293 115.93 178.145 117.234 181.09 117.234C184.09 117.234 186.207 115.68 186.215 113.406C186.207 111.695 185.105 110.648 182.84 110.156L180.793 109.719C179.574 109.445 179.09 109.023 179.098 108.328C179.09 107.516 179.988 106.953 181.168 106.953C182.473 106.953 183.16 107.664 183.379 108.453L185.957 108.172Z" fill="black"/>
<circle cx="246.5" cy="149.5" r="11.5" fill="#58B5FA"/>
<circle cx="246.5" cy="149.5" r="6.5" fill="white"/>
<circle cx="90.5" cy="327.5" r="26.5" fill="#161C28"/>
<path d="M84 328.651L88.75 333L98 322" stroke="white" stroke-width="3" stroke-linecap="round" stroke-linejoin="round"/>
<rect x="195" y="376" width="403" height="206" rx="14" fill="#F8F9FE"/>
<path d="M380.545 534.581C373.225 514.486 356.869 527.177 349 536.055V557H565V489.209C562.246 487.999 556.195 488.5 554.307 497.216C547.891 522.304 535.059 521.236 530.771 506.266C527.23 476.001 531.951 448.157 520.148 445.736C505.984 442.104 509.525 425.155 508.344 411.838C504.803 392.469 487.098 396.1 487.098 415.47C487.098 434.84 487.098 454.21 477.656 459.052C457.59 468.737 470.185 514.116 460.743 520.169C439.497 531.064 447.417 489.209 435.614 489.209C426.171 489.209 423.361 480.843 423.361 476.001C419.82 436.051 400.934 472.369 400.934 508.687C400.934 545.006 389.099 558.068 380.545 534.581Z" fill="url(#paint0_linear_0_383)"/>
<rect x="234" y="411" width="109" height="36" rx="18" fill="#53BD95"/>
<path d="M257.448 423.256V430.508L252.646 423.256H251.05V433H252.646V425.734L257.448 433H259.044V423.256H257.448ZM264.388 426.504C265.578 426.504 266.516 427.26 266.544 428.45H262.274C262.442 427.232 263.31 426.504 264.388 426.504ZM268 430.704H266.278C265.984 431.306 265.438 431.782 264.458 431.782C263.282 431.782 262.372 431.012 262.26 429.738H268.154C268.196 429.472 268.21 429.22 268.21 428.954C268.21 426.686 266.656 425.16 264.458 425.16C262.176 425.16 260.608 426.714 260.608 429.136C260.608 431.558 262.246 433.126 264.458 433.126C266.348 433.126 267.566 432.048 268 430.704ZM271.278 433H272.958L274.512 427.302L276.066 433H277.746L280.14 425.286H278.572L276.976 431.46L275.408 425.286H273.742L272.104 431.488L270.494 425.286H268.87L271.278 433ZM284.97 423.27V433H289.856V431.712H286.566V423.27H284.97ZM294.439 426.504C295.629 426.504 296.567 427.26 296.595 428.45H292.325C292.493 427.232 293.361 426.504 294.439 426.504ZM298.051 430.704H296.329C296.035 431.306 295.489 431.782 294.509 431.782C293.333 431.782 292.423 431.012 292.311 429.738H298.205C298.247 429.472 298.261 429.22 298.261 428.954C298.261 426.686 296.707 425.16 294.509 425.16C292.227 425.16 290.659 426.714 290.659 429.136C290.659 431.558 292.297 433.126 294.509 433.126C296.399 433.126 297.617 432.048 298.051 430.704ZM299.299 429.108C299.299 431.488 300.909 433.126 302.911 433.126C304.199 433.126 305.123 432.51 305.613 431.852V433H307.223V425.286H305.613V426.406C305.137 425.776 304.241 425.16 302.939 425.16C300.909 425.16 299.299 426.728 299.299 429.108ZM305.613 429.136C305.613 430.802 304.479 431.74 303.275 431.74C302.085 431.74 300.937 430.774 300.937 429.108C300.937 427.442 302.085 426.546 303.275 426.546C304.479 426.546 305.613 427.484 305.613 429.136ZM308.788 429.108C308.788 431.488 310.398 433.126 312.428 433.126C313.688 433.126 314.612 432.538 315.102 431.838V433H316.712V422.64H315.102V426.364C314.514 425.636 313.45 425.16 312.442 425.16C310.398 425.16 308.788 426.728 308.788 429.108ZM315.102 429.136C315.102 430.802 313.968 431.74 312.764 431.74C311.574 431.74 310.426 430.774 310.426 429.108C310.426 427.442 311.574 426.546 312.764 426.546C313.968 426.546 315.102 427.484 315.102 429.136ZM324.562 430.844C324.478 428.058 320.124 428.926 320.124 427.372C320.124 426.854 320.572 426.504 321.426 426.504C322.294 426.504 322.812 426.966 322.868 427.638H324.464C324.38 426.098 323.232 425.16 321.482 425.16C319.662 425.16 318.514 426.154 318.514 427.386C318.514 430.214 322.994 429.346 322.994 430.858C322.994 431.39 322.504 431.782 321.58 431.782C320.698 431.782 320.096 431.264 320.04 430.634H318.388C318.458 432.034 319.76 433.126 321.608 433.126C323.428 433.126 324.562 432.146 324.562 430.844Z" fill="#F8F9FE"/>
<path d="M235.74 485.361H239.07C239.28 483.831 240.39 482.391 242.79 482.391C245.13 482.391 246.36 483.651 246.36 485.541C246.36 487.881 244.47 488.781 241.38 488.811H240.57V491.631H241.35C244.92 491.631 246.78 492.621 246.78 495.501C246.78 497.541 245.52 499.101 242.97 499.101C240.39 499.101 238.89 497.541 238.74 495.501H235.44C235.65 499.791 238.86 501.951 243 501.951C247.56 501.951 250.02 499.311 250.02 495.831C250.02 492.801 248.55 490.911 246.27 490.221V490.101C247.98 489.531 249.63 487.761 249.63 485.151C249.63 481.971 247.26 479.451 242.91 479.451C238.92 479.451 235.98 481.581 235.74 485.361ZM251.963 506.001H254.183L257.813 497.721H254.093L251.963 506.001ZM259.751 480.051V482.961H270.851L262.421 501.831H265.871L274.211 482.601V480.051H259.751ZM276.868 501.531H291.448V498.681H281.938C285.448 495.471 290.848 491.421 290.848 486.111C290.848 482.181 288.328 479.511 283.888 479.511C280.018 479.511 276.958 481.821 276.838 486.561H280.138C280.228 484.101 281.518 482.421 283.918 482.421C286.468 482.421 287.458 483.981 287.458 486.261C287.458 490.551 282.028 494.511 276.868 499.041V501.531ZM295.562 495.891C295.832 499.011 297.932 501.801 302.462 501.801C308.192 501.801 309.752 497.871 309.752 490.491C309.752 483.321 307.862 479.451 302.222 479.451C297.632 479.451 294.962 482.331 294.962 486.681C294.962 491.301 298.082 493.671 301.922 493.671C303.902 493.671 305.792 492.921 306.782 491.541C306.782 497.121 305.402 498.951 302.672 498.951C300.392 498.951 299.102 497.841 298.712 495.891H295.562ZM302.522 490.791C299.492 490.791 298.232 488.841 298.232 486.591C298.232 484.071 299.762 482.301 302.312 482.301C304.802 482.301 306.392 483.891 306.392 486.681C306.392 489.141 304.952 490.791 302.522 490.791Z" fill="#161C28"/>
<path d="M234.72 524.524V526.27H241.38L236.322 537.592H238.392L243.396 526.054V524.524H234.72ZM245.152 530.86C245.152 534.676 246.16 537.556 249.832 537.556C253.504 537.556 254.512 534.676 254.512 530.86C254.512 527.116 253.504 524.236 249.832 524.236C246.16 524.236 245.152 527.116 245.152 530.86ZM252.496 530.86C252.496 533.434 252.226 535.684 249.832 535.684C247.438 535.684 247.168 533.434 247.168 530.86C247.168 528.412 247.438 526.108 249.832 526.108C252.226 526.108 252.496 528.412 252.496 530.86ZM259.078 536.404C259.078 535.666 258.502 535.09 257.782 535.09C257.044 535.09 256.468 535.666 256.468 536.404C256.468 537.142 257.044 537.718 257.782 537.718C258.502 537.718 259.078 537.142 259.078 536.404ZM261.025 530.86C261.025 534.676 262.033 537.556 265.705 537.556C269.377 537.556 270.385 534.676 270.385 530.86C270.385 527.116 269.377 524.236 265.705 524.236C262.033 524.236 261.025 527.116 261.025 530.86ZM268.369 530.86C268.369 533.434 268.099 535.684 265.705 535.684C263.311 535.684 263.041 533.434 263.041 530.86C263.041 528.412 263.311 526.108 265.705 526.108C268.099 526.108 268.369 528.412 268.369 530.86ZM272.233 527.638C272.233 529.438 273.403 530.464 274.969 530.464C276.535 530.464 277.705 529.438 277.705 527.638C277.705 525.856 276.535 524.83 274.969 524.83C273.403 524.83 272.233 525.856 272.233 527.638ZM274.969 526.072C275.653 526.072 276.103 526.522 276.103 527.638C276.103 528.754 275.653 529.222 274.969 529.222C274.267 529.222 273.835 528.754 273.835 527.638C273.835 526.522 274.267 526.072 274.969 526.072ZM274.015 537.592H276.031L283.213 525.064H281.197L274.015 537.592ZM279.559 535C279.559 536.8 280.729 537.826 282.295 537.826C283.843 537.826 285.013 536.8 285.013 535C285.013 533.2 283.843 532.192 282.295 532.192C280.729 532.192 279.559 533.2 279.559 535ZM282.277 533.434C282.961 533.434 283.411 533.884 283.411 535C283.411 536.116 282.961 536.566 282.277 536.566C281.593 536.566 281.143 536.116 281.143 535C281.143 533.884 281.593 533.434 282.277 533.434Z" fill="#B7BECB"/>
<path d="M350 535.254C357.832 526.536 375.142 514.092 381.721 534.065C389.945 559.032 401.694 542.388 401.694 506.721C401.694 471.053 420.492 435.386 424.016 474.62C424.016 479.376 426.366 488.887 435.765 488.887C447.514 488.887 440.464 530.499 461.612 519.798C471.011 513.854 458.087 467.487 478.06 457.975C487.459 453.22 487.459 434.197 487.459 415.175C487.459 396.152 505.082 392.586 508.607 411.608C509.781 424.686 506.257 441.331 520.355 444.897C532.104 447.275 527.404 474.62 530.929 504.343C534.454 522.176 548.552 520.987 554.426 496.02C556.306 487.46 562.259 487.698 565 488.887" stroke="#0F8CE9" stroke-width="3" stroke-linecap="round"/>
<defs>
<filter id="filter0_d_0_383" x="0" y="6" width="594" height="437" filterUnits="userSpaceOnUse" color-interpolation-filters="sRGB">
<feFlood flood-opacity="0" result="BackgroundImageFix"/>
<feColorMatrix in="SourceAlpha" type="matrix" values="0 0 0 0 0 0 0 0 0 0 0 0 0 0 0 0 0 0 127 0" result="hardAlpha"/>
<feOffset dy="25"/>
<feGaussianBlur stdDeviation="45"/>
<feComposite in2="hardAlpha" operator="out"/>
<feColorMatrix type="matrix" values="0 0 0 0 0.494118 0 0 0 0 0.517647 0 0 0 0 0.533333 0 0 0 0.25 0"/>
<feBlend mode="normal" in2="BackgroundImageFix" result="effect1_dropShadow_0_383"/>
<feBlend mode="normal" in="SourceGraphic" in2="effect1_dropShadow_0_383" result="shape"/>
</filter>
<filter id="filter1_d_0_383" x="72.4882" y="119.76" width="446.42" height="115.515" filterUnits="userSpaceOnUse" color-interpolation-filters="sRGB">
<feFlood flood-opacity="0" result="BackgroundImageFix"/>
<feColorMatrix in="SourceAlpha" type="matrix" values="0 0 0 0 0 0 0 0 0 0 0 0 0 0 0 0 0 0 127 0" result="hardAlpha"/>
<feOffset dy="9"/>
<feGaussianBlur stdDeviation="7"/>
<feColorMatrix type="matrix" values="0 0 0 0 0.725 0 0 0 0 0.320208 0 0 0 0 0.320208 0 0 0 0.04 0"/>
<feBlend mode="normal" in2="BackgroundImageFix" result="effect1_dropShadow_0_383"/>
<feBlend mode="normal" in="SourceGraphic" in2="effect1_dropShadow_0_383" result="shape"/>
</filter>
<linearGradient id="paint0_linear_0_383" x1="457" y1="399" x2="457" y2="541.408" gradientUnits="userSpaceOnUse">
<stop stop-color="#67BEFF"/>
<stop offset="1" stop-color="#F8F9FE"/>
</linearGradient>
</defs>
</svg>
