<svg width="92" height="26" viewBox="0 0 92 26" fill="none" xmlns="http://www.w3.org/2000/svg">
<path fill-rule="evenodd" clip-rule="evenodd" d="M64.0541 3.92675C64.2452 3.60152 64.3549 3.22259 64.3549 2.81805C64.3549 1.60794 63.3739 0.626953 62.1638 0.626953C60.9536 0.626953 59.9727 1.60794 59.9727 2.81805C59.9727 4.02817 60.9536 5.00916 62.1638 5.00916C62.6063 5.00916 63.0182 4.87795 63.3627 4.65233L72.0584 11.8988C71.3456 12.8885 70.9258 14.1033 70.9258 15.4162C70.9258 16.8304 71.413 18.1308 72.2287 19.1588L68.3819 24.8812C68.2279 25.1104 68.2887 25.4211 68.5179 25.5751C68.7471 25.7292 69.0578 25.6683 69.2118 25.4391L72.9319 19.9052C73.9982 20.8606 75.4069 21.4417 76.9513 21.4417C80.2791 21.4417 82.9768 18.744 82.9768 15.4162C82.9768 12.446 80.8279 9.97785 78 9.48156V3.36523C78 3.08909 77.7761 2.86523 77.5 2.86523C77.2239 2.86523 77 3.08909 77 3.36523V9.39082L76.9513 9.39062C75.2962 9.39062 73.7969 10.058 72.7079 11.1383L64.0541 3.92675ZM77.5 10.9863C77.3948 10.9863 77.2971 10.9538 77.2166 10.8983C77.1288 10.8932 77.0404 10.8906 76.9513 10.8906C74.4519 10.8906 72.4258 12.9168 72.4258 15.4162C72.4258 17.9155 74.4519 19.9417 76.9513 19.9417C79.4507 19.9417 81.4768 17.9155 81.4768 15.4162C81.4768 13.1673 79.8365 11.3016 77.6871 10.9501C77.6293 10.9735 77.5661 10.9863 77.5 10.9863ZM8.94109 19.4355H11.2211V5.53555H8.94109V11.4955H2.40109V5.53555H0.121094V19.4355H2.40109V13.3555H8.94109V19.4355ZM24.2027 8.41555H21.9227V14.5555C21.9227 16.5755 20.8227 17.6155 19.1427 17.6155C17.4827 17.6155 16.3827 16.5755 16.3827 14.5555V8.41555H14.1227V14.8955C14.1227 17.9755 16.0827 19.5955 18.6627 19.5955C19.9627 19.5955 21.2027 19.0555 21.9227 18.1155V19.4355H24.2027V8.41555ZM29.4909 10.0555V4.63555H27.2109V19.4355H29.4909V17.8355C30.2109 18.7955 31.5109 19.6155 33.3309 19.6155C36.2309 19.6155 38.5109 17.2755 38.5109 13.8755C38.5109 10.4755 36.2509 8.23555 33.3309 8.23555C31.5909 8.23555 30.2109 9.05555 29.4909 10.0555ZM36.1909 13.8755C36.1909 16.2555 34.5509 17.6355 32.8309 17.6355C31.1309 17.6355 29.4909 16.2955 29.4909 13.9155C29.4909 11.5555 31.1309 10.2155 32.8309 10.2155C34.5509 10.2155 36.1909 11.4955 36.1909 13.8755ZM50.1456 15.4955C50.1456 12.6515 47.8388 12.014 45.8081 11.4529C44.2115 11.0117 42.7856 10.6176 42.7856 9.23555C42.7856 7.89555 43.8056 7.25555 45.1256 7.29555C46.5656 7.33555 47.3856 8.19555 47.4656 9.13555H49.9856C49.7856 6.75555 47.9056 5.35555 45.2456 5.35555C42.4056 5.35555 40.4656 6.87555 40.4656 9.31555C40.4656 12.1441 42.7181 12.7447 44.7342 13.2822C46.3675 13.7177 47.8456 14.1118 47.8456 15.6155C47.8456 16.7955 46.9456 17.6555 45.3456 17.6555C43.7656 17.6555 42.9656 16.7355 42.8656 15.5955H40.4256C40.4256 18.0555 42.5656 19.5755 45.3456 19.5755C48.4456 19.5755 50.1456 17.5755 50.1456 15.4955ZM55.1159 10.0355V8.41555H52.8359V24.6755H55.1159V17.8355C55.8359 18.6955 57.1359 19.6155 58.9559 19.6155C61.8559 19.6155 64.1359 17.2755 64.1359 13.8755C64.1359 10.4755 61.8559 8.23555 58.9559 8.23555C57.1559 8.23555 55.8159 9.11555 55.1159 10.0355ZM61.8159 13.8755C61.8159 16.2555 60.1759 17.6355 58.4559 17.6355C56.7559 17.6355 55.1159 16.2955 55.1159 13.9155C55.1159 11.5555 56.7559 10.2155 58.4559 10.2155C60.1759 10.2155 61.8159 11.4955 61.8159 13.8755ZM90.208 20.5312C88.248 20.5312 87.028 19.7113 87.028 17.4713V11.3712H85.728V9.51125H87.028V6.77125H89.328V9.51125H92.008V11.3712H89.328V17.4713C89.328 18.2913 89.648 18.6313 90.608 18.6313H92.008V20.5312H90.208Z" fill="#8A898C"/>
</svg>
