<svg width="84" height="23" viewBox="0 0 84 23" fill="none" xmlns="http://www.w3.org/2000/svg">
<path fill-rule="evenodd" clip-rule="evenodd" d="M5.06299 13.7012H13.0776V9.87793H5.06299V5.13428H13.8848V1.29688H0.0927734V21.9141H5.06299V13.7012ZM17.1274 20.1016C18.5812 21.4987 20.4834 22.1973 22.834 22.1973C24.0895 22.1973 25.2601 21.9565 26.3457 21.4751C27.4408 20.9842 28.2856 20.3281 28.8804 19.5068L26.6997 16.9297C25.8501 17.987 24.6701 18.5156 23.1597 18.5156C22.244 18.5156 21.4982 18.2702 20.9224 17.7793C20.3465 17.2884 19.9736 16.6134 19.8037 15.7544H29.291V13.8994C29.291 11.5111 28.668 9.65137 27.4219 8.32031C26.1758 6.97982 24.4766 6.30957 22.3242 6.30957C20.7949 6.30957 19.4733 6.63997 18.3594 7.30078C17.2454 7.95215 16.3958 8.87728 15.8105 10.0762C15.2347 11.2751 14.9468 12.658 14.9468 14.2251V14.6216C14.9468 16.8683 15.6737 18.695 17.1274 20.1016ZM19.8037 12.7666C20.068 10.9163 20.8988 9.99121 22.2959 9.99121C23.0511 9.99121 23.6317 10.2036 24.0376 10.6284C24.4435 11.0438 24.637 11.6338 24.6182 12.3984V12.7666H19.8037ZM32.1938 8.40527C31.146 9.80241 30.6221 11.714 30.6221 14.1401C30.6221 16.7173 31.1554 18.7044 32.2222 20.1016C33.2889 21.4987 34.7332 22.1973 36.5552 22.1973C38.0656 22.1973 39.3117 21.5553 40.2935 20.2715L40.5342 21.9141H44.8247V0.164062H40.0386V7.92383C39.104 6.84766 37.9523 6.30957 36.5835 6.30957C34.7049 6.30957 33.2417 7.00814 32.1938 8.40527ZM37.7729 18.5156C36.187 18.5156 35.394 17.1562 35.394 14.4375L35.4082 13.5596C35.5309 11.1807 36.3286 9.99121 37.8013 9.99121C38.8586 9.99121 39.6043 10.4443 40.0386 11.3506V17.1846C39.5854 18.0719 38.8302 18.5156 37.7729 18.5156ZM57.874 12.7803H65.96V8.95703H57.874V4.45996H67.4541V0.490234H52.7324V21.8184H67.4248V17.8633H57.874V12.7803ZM78.0156 5.96875L75.7158 10.334L73.4893 5.96875H68.3037L72.4639 13.6885L68.0693 21.8184H73.2549L75.7012 17.1309L78.1914 21.8184H83.3477L78.9678 13.6885L83.1426 5.96875H78.0156Z" fill="#8A898C"/>
</svg>
