<svg width="92" height="28" viewBox="0 0 92 28" fill="none" xmlns="http://www.w3.org/2000/svg">
<path fill-rule="evenodd" clip-rule="evenodd" d="M0.871704 10.6784C0.871704 4.43844 5.6417 0.0284424 11.5217 0.0284424C15.8717 0.0284424 19.6217 2.21844 21.2117 6.29844H17.1017C15.9917 4.19844 14.0117 3.14844 11.5217 3.14844C7.3817 3.14844 4.3817 6.08844 4.3817 10.6784C4.3817 15.2684 7.3817 18.2384 11.5217 18.2384C15.3017 18.2384 17.6717 15.9584 18.1817 12.4484H10.3517V9.71844H21.8417V12.3884C21.2117 17.2184 17.1317 21.3284 11.5217 21.3284C5.6417 21.3284 0.871704 16.9484 0.871704 10.6784ZM31.5193 7.89985C35.2873 7.89985 38.2633 10.5638 38.2633 14.7158C38.2633 18.8678 35.1913 21.5559 31.3993 21.5559C27.6313 21.5559 24.7753 18.8678 24.7753 14.7158C24.7753 10.5638 27.7513 7.89985 31.5193 7.89985ZM31.4713 10.2758C29.4073 10.2758 27.5593 11.7158 27.5593 14.7158C27.5593 17.7159 29.3353 19.1798 31.3993 19.1798C33.4393 19.1798 35.4553 17.7159 35.4553 14.7158C35.4553 11.7158 33.5113 10.2758 31.4713 10.2758ZM54.6969 14.7158C54.6969 10.5638 51.7209 7.89985 47.9529 7.89985C44.1849 7.89985 41.2089 10.5638 41.2089 14.7158C41.2089 18.8678 44.0649 21.5559 47.8329 21.5559C51.6249 21.5559 54.6969 18.8678 54.6969 14.7158ZM43.9929 14.7158C43.9929 11.7158 45.8409 10.2758 47.9049 10.2758C49.9449 10.2758 51.8889 11.7158 51.8889 14.7158C51.8889 17.7159 49.8729 19.1798 47.8329 19.1798C45.7689 19.1798 43.9929 17.7159 43.9929 14.7158ZM62.7608 21.5559C59.2808 21.5559 56.5208 18.7479 56.5208 14.6678C56.5208 10.5878 59.2808 7.89985 62.7608 7.89985C64.9208 7.89985 66.5288 8.90785 67.3448 10.0358V8.11585H70.1048V21.5559C70.1048 25.1559 67.7768 27.8679 63.6488 27.8679C60.1208 27.8679 57.5048 26.1159 57.1688 23.1879H59.8808C60.2888 24.5559 61.7528 25.4918 63.6488 25.4918C65.7608 25.4918 67.3448 24.1959 67.3448 21.5559V19.3479C66.5048 20.4759 64.9208 21.5559 62.7608 21.5559ZM63.3368 19.1798C65.4008 19.1798 67.3448 17.5718 67.3448 14.7158C67.3448 11.8839 65.4008 10.2758 63.3368 10.2758C61.2968 10.2758 59.3288 11.8118 59.3288 14.6678C59.3288 17.5238 61.2968 19.1798 63.3368 19.1798ZM72.9641 19.1484H75.7001V1.38844H72.9641V19.1484ZM88.6109 13.5399C88.5629 11.4998 86.9549 10.2038 84.9149 10.2038C83.0669 10.2038 81.5789 11.4518 81.2909 13.5399H88.6109ZM88.1549 17.4039H91.1069C90.3629 19.7078 88.2749 21.5559 85.0349 21.5559C81.2429 21.5559 78.4349 18.8678 78.4349 14.7158C78.4349 10.5638 81.1229 7.89985 85.0349 7.89985C88.8029 7.89985 91.4669 10.5158 91.4669 14.4039C91.4669 14.8598 91.4429 15.2919 91.3709 15.7479H81.2669C81.4589 17.9319 83.0189 19.2519 85.0349 19.2519C86.7149 19.2519 87.6509 18.4359 88.1549 17.4039Z" fill="#8A898C"/>
</svg>
