<svg width="128" height="28" viewBox="0 0 128 28" fill="none" xmlns="http://www.w3.org/2000/svg">
<path d="M52 1V23.7556H56.0735V8.08889H56.2909L62.7672 23.6889H65.8109L72.2873 8.12222H72.5047V23.7556H76.5781V1H71.3833L64.4264 17.4889H64.1518L57.1948 1H52Z" fill="white"/>
<path d="M81.2008 23.7556H85.4459V15.4222H89.7712L94.371 23.7556H99.1081L94.0391 14.7333C96.7967 13.6556 98.2499 11.3667 98.2499 8.27778C98.2499 3.93333 95.3665 1 89.9886 1H81.2008V23.7556ZM85.4459 12V4.44445H89.3363C92.5059 4.44445 93.9247 5.85556 93.9247 8.27778C93.9247 10.7 92.5059 12 89.3592 12H85.4459Z" fill="white"/>
<path d="M102.157 23.7556H106.403V15.4222H110.728L115.328 23.7556H120.065L114.996 14.7333C117.753 13.6556 119.207 11.3667 119.207 8.27778C119.207 3.93333 116.323 1 110.945 1H102.157V23.7556ZM106.403 12V4.44445H110.293C113.463 4.44445 114.881 5.85556 114.881 8.27778C114.881 10.7 113.463 12 110.316 12H106.403Z" fill="white"/>
<path d="M125.483 24C126.833 24 127.989 22.9111 128 21.5556C127.989 20.2222 126.833 19.1333 125.483 19.1333C124.087 19.1333 122.954 20.2222 122.965 21.5556C122.954 22.9111 124.087 24 125.483 24Z" fill="white"/>
<path d="M125.5 24C126.841 24 127.989 22.8813 128 21.4886C127.989 20.1187 126.841 19 125.5 19C124.114 19 122.989 20.1187 123 21.4886C122.989 22.8813 124.114 24 125.5 24Z" fill="#FE7747"/>
<path d="M21.5 10C22.8409 10 23.9886 9.10502 24 7.99087C23.9886 6.89498 22.8409 6 21.5 6C20.1137 6 18.9887 6.89498 19.0001 7.99087C18.9887 9.10502 20.1137 10 21.5 10Z" fill="#FE7747"/>
<path d="M9.50004 16C10.8409 16 11.9886 15.105 12 13.9909C11.9886 12.895 10.8409 12 9.50004 12C8.1137 12 6.98872 12.895 7.00009 13.9909C6.98872 15.105 8.1137 16 9.50004 16Z" fill="#FE7747"/>
<path d="M15.0214 22.1582C15.5349 23.648 15.0214 26.8715 8.85876 27.8467C5.00712 28.253 0 28.253 0 22.5645V5.7401C0 4.16991 1.30956 1.02952 6.54778 1.02952C13.0956 1.02952 14.6362 4.6864 17.3323 10.3749C19.4893 14.9257 21.0556 18.5013 21.5691 19.7203C22.468 21.8538 23.572 22.727 25.4208 21.7519V4.28009C25.4208 2.92569 24.2653 0.460675 19.6433 1.43584C21.184 0.352322 25.4978 -1.16461 30.4279 1.43584C32.3537 2.84424 31.9686 5.28217 31.9686 8.93905V22.754C31.9686 24.3793 30.582 27.5217 26.5763 27.8467C21.5691 28.253 19.6433 27.8467 17.3323 24.1898C15.4836 21.2643 12.1968 13.49 10.7846 9.96854C10.1426 8.4787 8.31953 5.90534 6.16261 7.53062V21.7518C9.55205 21.7518 11.4265 17.9595 11.9401 16.0634L15.0214 22.1582Z" fill="#53BD95"/>
</svg>
