<svg width="76" height="17" viewBox="0 0 76 17" fill="none" xmlns="http://www.w3.org/2000/svg">
<path d="M0 0V16.8193H4.07347V5.23961H4.29088L10.7672 16.77H13.8109L20.2873 5.26425H20.5047V16.8193H24.5781V0H19.3833L12.4264 12.1874H12.1518L5.19482 0H0Z" fill="white"/>
<path d="M29.2008 16.8193H33.4459V10.6599H37.7712L42.371 16.8193H47.1081L42.0391 10.1507C44.7967 9.35411 46.2499 7.66232 46.2499 5.37923C46.2499 2.16812 43.3665 0 37.9886 0H29.2008V16.8193ZM33.4459 8.13043V2.54589H37.3363C40.5059 2.54589 41.9247 3.58889 41.9247 5.37923C41.9247 7.16957 40.5059 8.13043 37.3592 8.13043H33.4459Z" fill="white"/>
<path d="M50.1575 16.8193H54.4026V10.6599H58.7278L63.3276 16.8193H68.0647L62.9958 10.1507C65.7534 9.35411 67.2066 7.66232 67.2066 5.37923C67.2066 2.16812 64.3231 0 58.9452 0H50.1575V16.8193ZM54.4026 8.13043V2.54589H58.293C61.4625 2.54589 62.8814 3.58889 62.8814 5.37923C62.8814 7.16957 61.4625 8.13043 58.3159 8.13043H54.4026Z" fill="white"/>
<path d="M73.4827 17C74.8329 17 75.9886 16.1952 76 15.1932C75.9886 14.2077 74.8329 13.4029 73.4827 13.4029C72.0867 13.4029 70.9539 14.2077 70.9654 15.1932C70.9539 16.1952 72.0867 17 73.4827 17Z" fill="white"/>
</svg>
