<svg width="133" height="30" viewBox="0 0 133 30" fill="none" xmlns="http://www.w3.org/2000/svg">
<path d="M39 22.2375H41.3616V12.4859L45.7742 22.2375H47.4108L51.8026 12.4859V22.2375H54.1643V7.99934H51.6369L46.6029 19.1645L41.5481 7.99934H39V22.2375Z" fill="#8A898C"/>
<path d="M57.2683 22.2375H59.63V10.9494H57.2683V22.2375ZM58.4698 9.45389C59.2985 9.45389 59.9614 8.79832 59.9614 7.95837C59.9614 7.11842 59.2985 6.46285 58.4698 6.46285C57.6205 6.46285 56.9576 7.11842 56.9576 7.95837C56.9576 8.79832 57.6205 9.45389 58.4698 9.45389Z" fill="#8A898C"/>
<path d="M61.9434 16.5832C61.9434 20.1274 64.2636 22.4219 67.5368 22.4219C70.3334 22.4219 72.1565 20.8854 72.7987 18.6728H70.2506C69.8155 19.8406 68.9455 20.4552 67.5368 20.4552C65.6309 20.4552 64.3672 19.0621 64.3672 16.5832C64.3672 14.1248 65.6309 12.7317 67.5368 12.7317C68.9455 12.7317 69.857 13.4283 70.2506 14.5141H72.7987C72.1565 12.1376 70.3334 10.765 67.5368 10.765C64.2636 10.765 61.9434 13.0595 61.9434 16.5832Z" fill="#8A898C"/>
<path d="M77.5139 16.2964C77.5139 13.8995 78.5911 13.1824 80.3313 13.1824H80.9321V10.765C79.3162 10.765 78.1768 11.4616 77.5139 12.5883V10.9494H75.1522V22.2375H77.5139V16.2964Z" fill="#8A898C"/>
<path d="M93.9789 16.5832C93.9789 13.039 91.4101 10.765 88.1576 10.765C84.9052 10.765 82.3364 13.039 82.3364 16.5832C82.3364 20.1274 84.8016 22.4219 88.0541 22.4219C91.3272 22.4219 93.9789 20.1274 93.9789 16.5832ZM84.7395 16.5832C84.7395 14.0224 86.3346 12.7932 88.1162 12.7932C89.8771 12.7932 91.5551 14.0224 91.5551 16.5832C91.5551 19.144 89.8149 20.3937 88.0541 20.3937C86.2725 20.3937 84.7395 19.144 84.7395 16.5832Z" fill="#8A898C"/>
<path d="M104.828 19.0826C104.704 15.0057 98.2608 16.2759 98.2608 14.0019C98.2608 13.2439 98.9238 12.7317 100.187 12.7317C101.472 12.7317 102.238 13.4078 102.321 14.3911H104.683C104.559 12.1376 102.86 10.765 100.27 10.765C97.5772 10.765 95.8785 12.2196 95.8785 14.0224C95.8785 18.1607 102.508 16.8905 102.508 19.1031C102.508 19.8815 101.783 20.4552 100.415 20.4552C99.1102 20.4552 98.2194 19.6972 98.1366 18.7753H95.692C95.7956 20.8239 97.7222 22.4219 100.457 22.4219C103.15 22.4219 104.828 20.9878 104.828 19.0826Z" fill="#8A898C"/>
<path d="M118.256 16.5832C118.256 13.039 115.687 10.765 112.434 10.765C109.182 10.765 106.613 13.039 106.613 16.5832C106.613 20.1274 109.078 22.4219 112.331 22.4219C115.604 22.4219 118.256 20.1274 118.256 16.5832ZM109.016 16.5832C109.016 14.0224 110.611 12.7932 112.393 12.7932C114.154 12.7932 115.832 14.0224 115.832 16.5832C115.832 19.144 114.092 20.3937 112.331 20.3937C110.549 20.3937 109.016 19.144 109.016 16.5832Z" fill="#8A898C"/>
<path d="M120.88 22.2375H123.263V12.8547H125.376V10.9494H123.263V10.1504C123.263 8.85977 123.76 8.3681 125.21 8.3681V6.42188C122.227 6.42188 120.88 7.54864 120.88 10.1504V10.9494H119.534V12.8547H120.88V22.2375Z" fill="#8A898C"/>
<path d="M127.842 19.1031C127.842 21.3975 129.105 22.2375 131.136 22.2375H133V20.2913H131.55C130.555 20.2913 130.224 19.943 130.224 19.1031V12.8547H133V10.9494H130.224V8.14275H127.842V10.9494H126.495V12.8547H127.842V19.1031Z" fill="#8A898C"/>
<path fill-rule="evenodd" clip-rule="evenodd" d="M14.2382 0.53125H-0.00390625V13.6779H14.2382V0.53125ZM29.5742 0.53125H15.332V13.6779H29.5742V0.53125ZM15.332 15.8691H29.5742V29.0157H15.332V15.8691ZM14.2382 15.8691H-0.00390625V29.0157H14.2382V15.8691Z" fill="#8A898C"/>
</svg>
